HIERARCHY
ROOT joint_Root
{
	OFFSET 0.0 0.0 0.0
	CHANNELS 6 Xposition Yposition Zposition Zrotation Xrotation Yrotation 
	JOINT Hips
	{
		OFFSET -0.726466 93.3139 -2.00062
		CHANNELS 6 Xposition Yposition Zposition Zrotation Xrotation Yrotation 
		JOINT Spine
		{
			OFFSET 15.7357 0.0 0.0
			CHANNELS 6 Xposition Yposition Zposition Zrotation Xrotation Yrotation 
			JOINT Chest
			{
				OFFSET 8.98455 -0.406207 0.0
				CHANNELS 6 Xposition Yposition Zposition Zrotation Xrotation Yrotation 
				JOINT Neck
				{
					OFFSET 16.3773 0.0 0.0
					CHANNELS 6 Xposition Yposition Zposition Zrotation Xrotation Yrotation 
					JOINT Head
					{
						OFFSET 6.45672 0.0 0.0
						CHANNELS 6 Xposition Yposition Zposition Zrotation Xrotation Yrotation 
						End Site
						{
							OFFSET 0.0 0.0 0.0
						}
					}
				}
				JOINT Shoulder_L
				{
					OFFSET 12.9942 -0.242716 4.98039
					CHANNELS 6 Xposition Yposition Zposition Zrotation Xrotation Yrotation 
					JOINT UpperArm_L
					{
						OFFSET 5.34809 0.0 0.0
						CHANNELS 6 Xposition Yposition Zposition Zrotation Xrotation Yrotation 
						JOINT LowerArm_L
						{
							OFFSET 24.3286 1.87007e-05 0.0
							CHANNELS 6 Xposition Yposition Zposition Zrotation Xrotation Yrotation 
							JOINT Hand_L
							{
								OFFSET 22.2916 0.0 0.0
								CHANNELS 6 Xposition Yposition Zposition Zrotation Xrotation Yrotation 
								End Site
								{
									OFFSET 0.0 0.0 0.0
								}
							}
						}
					}
				}
				JOINT Shoulder_R
				{
					OFFSET 12.9945 -0.242716 -4.98039
					CHANNELS 6 Xposition Yposition Zposition Zrotation Xrotation Yrotation 
					JOINT UpperArm_R
					{
						OFFSET -5.34813 0.0 0.0
						CHANNELS 6 Xposition Yposition Zposition Zrotation Xrotation Yrotation 
						JOINT LowerArm_R
						{
							OFFSET -24.3289 0.000322201 0.0
							CHANNELS 6 Xposition Yposition Zposition Zrotation Xrotation Yrotation 
							JOINT Hand_R
							{
								OFFSET -22.2915 -0.000108084 0.0
								CHANNELS 6 Xposition Yposition Zposition Zrotation Xrotation Yrotation 
								End Site
								{
									OFFSET 0.0 0.0 0.0
								}
							}
						}
					}
				}
			}
		}
		JOINT UpperLeg_L
		{
			OFFSET -2.19248 -6.46944 0.0
			CHANNELS 6 Xposition Yposition Zposition Zrotation Xrotation Yrotation 
			JOINT LowerLeg_L
			{
				OFFSET 39.0811 0.0 -1.23785e-05
				CHANNELS 6 Xposition Yposition Zposition Zrotation Xrotation Yrotation 
				JOINT Foot_L
				{
					OFFSET 40.9854 0.0 -1.26872e-05
					CHANNELS 6 Xposition Yposition Zposition Zrotation Xrotation Yrotation 
					JOINT Toes_L
					{
						OFFSET 11.7543 0.0 0.0
						CHANNELS 6 Xposition Yposition Zposition Zrotation Xrotation Yrotation 
						End Site
						{
							OFFSET 0.0 0.0 0.0
						}
					}
				}
			}
		}
		JOINT UpperLeg_R
		{
			OFFSET -2.19251 6.46944 0.0
			CHANNELS 6 Xposition Yposition Zposition Zrotation Xrotation Yrotation 
			JOINT LowerLeg_R
			{
				OFFSET -39.0811 -0.00228153 -0.0401928
				CHANNELS 6 Xposition Yposition Zposition Zrotation Xrotation Yrotation 
				JOINT Foot_R
				{
					OFFSET -40.9854 0.0 0.0
					CHANNELS 6 Xposition Yposition Zposition Zrotation Xrotation Yrotation 
					JOINT Toes_R
					{
						OFFSET -11.7543 0.0 0.0
						CHANNELS 6 Xposition Yposition Zposition Zrotation Xrotation Yrotation 
						End Site
						{
							OFFSET 0.0 0.0 0.0
						}
					}
				}
			}
		}
	}
}
MOTION
Frames:	8
Frame Time:	0.0333333
0.000000 0.000000 0.000000 0.000000 0.000000 -0.000000 101.248000 90.237100 168.476000 104.600000 -73.366900 15.831500 15.735700 0.000005 -0.000001 105.643000 82.923400 -106.109000 8.984550 -0.406207 -0.000000 5.888780 3.813970 -1.128800 16.377300 -0.000001 -0.000001 1.100850 -9.560990 1.511510 6.456720 -0.000001 -0.000000 3.218350 -18.032600 2.678870 12.994200 -0.242716 4.980390 -89.154200 -2.189510 -68.871300 5.348090 -0.000007 -0.000001 -82.561700 28.765100 7.017290 24.328600 0.000019 0.000005 3.251600 9.417970 -19.147200 22.291600 -0.000001 0.000005 -0.868818 5.424690 -3.758800 12.994500 -0.242716 -4.980390 88.861200 4.277310 -75.076700 -5.348130 -0.000001 -0.000004 -54.247400 46.671300 -41.466300 -24.328900 0.000322 -0.000009 2.939370 4.656820 -32.321200 -22.291500 -0.000108 -0.000004 10.521900 5.434060 -4.078950 -2.192480 -6.469440 -0.000000 -175.634000 5.948600 -22.541600 39.081100 -0.000007 -0.000012 0.000306 -0.000404 37.014500 40.985400 -0.000006 -0.000013 4.476210 -10.500200 -56.407400 11.754300 -0.000000 0.000003 -0.006603 -0.076225 -19.679600 -2.192510 6.469440 -0.000001 -177.110000 5.102890 -173.836000 -39.081100 -0.002282 -0.040193 0.015708 -0.032369 20.943200 -40.985400 0.000008 0.000006 17.159700 4.567330 -73.816300 -11.754300 -0.000006 -0.000006 -0.009878 -0.102723 -20.758200
0.000000 0.000000 0.000000 0.000000 0.000000 -0.000000 98.950400 89.931200 170.020000 103.666000 -75.382400 14.173300 15.735700 0.000005 -0.000001 106.019000 83.148600 -106.392000 8.984550 -0.406207 -0.000000 5.426480 3.780390 -0.924480 16.377300 -0.000001 -0.000001 0.915150 -8.991530 1.279930 6.456720 -0.000001 -0.000000 2.959890 -17.217000 2.257370 12.994200 -0.242716 4.980390 -89.125500 -2.266560 -68.895900 5.348090 -0.000007 -0.000001 -81.946900 26.960800 6.706270 24.328600 0.000019 0.000005 3.056590 10.082200 -16.963500 22.291600 -0.000001 0.000005 -0.068601 5.407610 -3.188570 12.994500 -0.242716 -4.980390 88.907200 4.121500 -75.136600 -5.348130 -0.000001 -0.000004 -53.035400 46.761400 -43.346000 -24.328900 0.000322 -0.000009 3.056710 4.462510 -34.472300 -22.291500 -0.000108 -0.000004 10.953500 5.440370 -4.297920 -2.192480 -6.469440 -0.000000 -173.857000 5.077440 -22.428700 39.081100 -0.000007 -0.000012 -0.015578 0.034350 24.394800 40.985400 -0.000006 -0.000013 1.923920 -8.592440 -54.774000 11.754300 -0.000000 0.000003 -0.006252 -0.073120 -19.552900 -2.192510 6.469440 -0.000001 -177.576000 5.022900 -173.195000 -39.081100 -0.002282 -0.040193 0.016921 -0.034610 21.455500 -40.985400 0.000008 0.000006 17.247700 6.423040 -74.074200 -11.754300 -0.000006 -0.000006 -0.341890 -0.462088 -21.886800
0.000000 0.000000 0.000000 0.000000 0.000000 -0.000000 96.394000 89.483800 171.667000 102.694000 -77.022700 12.668200 15.735700 0.000005 -0.000001 105.628000 83.351800 -105.962000 8.984550 -0.406207 -0.000000 5.057280 3.582520 -0.825369 16.377300 -0.000001 -0.000001 0.738861 -8.529540 1.047570 6.456720 -0.000001 -0.000000 2.757080 -16.390600 2.051770 12.994200 -0.242716 4.980390 -89.096200 -2.355370 -68.999600 5.348090 -0.000007 -0.000001 -80.863900 25.418400 5.866040 24.328600 0.000019 0.000005 2.865730 10.714900 -15.069700 22.291600 -0.000001 0.000005 1.213640 5.390270 -2.627480 12.994500 -0.242716 -4.980390 88.901800 4.158530 -75.192700 -5.348130 -0.000001 -0.000004 -53.214100 46.445200 -43.508900 -24.328900 0.000322 -0.000009 3.024670 4.184100 -35.922500 -22.291500 -0.000108 -0.000004 11.403000 5.448550 -4.587660 -2.192480 -6.469440 -0.000000 -173.581000 -0.731709 -22.442000 39.081100 -0.000007 -0.000012 -0.036834 0.154227 13.432300 40.985400 -0.000006 -0.000013 -8.258800 -2.556940 -50.417300 11.754300 -0.000000 0.000003 -0.006025 -0.071067 -19.469100 -2.192510 6.469440 -0.000001 -178.353000 5.213990 -172.664000 -39.081100 -0.002282 -0.040193 0.025077 -0.051717 22.819700 -40.985400 0.000008 0.000006 17.456400 8.242270 -74.130000 -11.754300 -0.000006 -0.000006 -1.485530 -1.582670 -24.344700
0.000000 0.000000 0.000000 0.000000 0.000000 -0.000000 93.313000 88.884900 173.511000 99.890700 -78.708400 9.808450 15.735700 0.000005 -0.000001 105.715000 83.438500 -105.901000 8.984550 -0.406207 -0.000000 4.879780 3.552220 -0.522843 16.377300 -0.000001 -0.000001 0.547468 -8.149110 0.847487 6.456720 -0.000001 -0.000000 2.635920 -15.667200 1.942760 12.994200 -0.242716 4.980390 -89.028500 -2.539970 -69.061100 5.348090 -0.000007 -0.000001 -79.611100 23.973900 4.517420 24.328600 0.000019 0.000005 2.709560 11.445400 -13.415100 22.291600 -0.000001 0.000005 2.674400 5.373450 -2.096440 12.994500 -0.242716 -4.980390 88.918800 4.069710 -75.107800 -5.348130 -0.000001 -0.000004 -54.426000 46.074000 -42.282600 -24.328900 0.000322 -0.000009 2.894560 3.895510 -36.669200 -22.291500 -0.000108 -0.000004 11.929400 5.454170 -4.788750 -2.192480 -6.469440 -0.000000 -175.811000 -6.641030 -25.494300 39.081100 -0.000007 -0.000012 -0.053111 0.214615 13.899600 40.985400 -0.000006 -0.000013 -6.867430 3.680590 -55.693800 11.754300 -0.000000 0.000003 -0.005569 -0.066881 -19.298400 -2.192510 6.469440 -0.000001 -178.740000 4.769310 -171.619000 -39.081100 -0.002282 -0.040193 0.035061 -0.069824 24.450300 -40.985400 0.000008 0.000006 17.712700 9.525080 -72.969200 -11.754300 -0.000006 -0.000006 -3.491590 -3.279080 -28.124100
0.000000 0.000000 0.000000 0.000000 0.000000 -0.000000 89.936200 88.457900 175.611000 103.738000 -79.305900 13.736100 15.735700 0.000005 -0.000001 103.126000 83.455600 -103.643000 8.984550 -0.406207 -0.000000 4.999820 2.978830 -1.164450 16.377300 -0.000001 -0.000001 0.532893 -7.935030 0.666304 6.456720 -0.000001 -0.000000 2.280730 -14.986600 1.966510 12.994200 -0.242716 4.980390 -89.183300 -2.159990 -69.283600 5.348090 -0.000007 -0.000001 -77.653600 22.661400 2.488790 24.328600 0.000019 0.000005 2.547600 12.041600 -12.039300 22.291600 -0.000001 0.000005 4.374400 5.360260 -1.690000 12.994500 -0.242716 -4.980390 88.793200 4.515070 -75.018400 -5.348130 -0.000001 -0.000004 -55.513000 45.513500 -40.346500 -24.328900 0.000322 -0.000009 2.589630 3.538510 -36.246000 -22.291500 -0.000108 -0.000004 12.447200 5.457820 -4.921660 -2.192480 -6.469440 -0.000000 -177.622000 -7.916850 -27.320400 39.081100 -0.000007 -0.000012 -0.024251 0.082099 16.456000 40.985400 -0.000006 -0.000013 -5.485970 4.878390 -53.963200 11.754300 -0.000000 0.000003 -0.006081 -0.071581 -19.490100 -2.192510 6.469440 -0.000001 179.288000 4.618220 -170.362000 -39.081100 -0.002282 -0.040193 0.042894 -0.078501 26.760100 -40.985400 0.000008 0.000006 17.902800 10.116400 -72.286700 -11.754300 -0.000006 -0.000006 -0.379957 -0.566727 -29.724000
0.000000 0.000000 0.000000 0.000000 0.000000 -0.000000 86.077300 88.117300 177.886000 111.437000 -79.713100 21.513600 15.735700 0.000005 -0.000001 101.018000 83.502100 -102.056000 8.984550 -0.406207 -0.000000 5.017440 2.503640 -2.182450 16.377300 -0.000001 -0.000001 0.679381 -7.717610 0.604061 6.456720 -0.000001 -0.000000 2.090030 -14.371100 1.841570 12.994200 -0.242716 4.980390 -89.444300 -1.481590 -69.435700 5.348090 -0.000007 -0.000001 -75.480800 21.965800 0.106308 24.328600 0.000019 0.000005 2.408600 12.330300 -11.143000 22.291600 -0.000001 0.000005 6.108320 5.346120 -1.262130 12.994500 -0.242716 -4.980390 88.605300 5.165530 -74.867400 -5.348130 -0.000001 -0.000004 -56.696200 44.843300 -37.534200 -24.328900 0.000322 -0.000009 2.384210 3.443180 -34.743600 -22.291500 -0.000108 -0.000004 12.781900 5.457910 -4.924640 -2.192480 -6.469440 -0.000000 -179.128000 -6.577890 -28.369700 39.081100 -0.000007 -0.000012 -0.044618 0.113666 21.431600 40.985400 -0.000006 -0.000013 -4.340530 3.833980 -45.452400 11.754300 -0.000000 0.000003 -0.007373 -0.082845 -19.949700 -2.192510 6.469440 -0.000001 176.570000 4.344810 -169.320000 -39.081100 -0.002282 -0.040193 0.048913 -0.079882 29.725200 -40.985400 0.000008 0.000006 18.096400 10.937900 -70.381600 -11.754300 -0.000006 -0.000006 -0.098609 -0.441092 -34.975900
0.000000 0.000000 0.000000 0.000000 0.000000 -0.000000 81.715800 87.934200 180.116000 119.897000 -80.254300 31.044500 15.735700 0.000005 -0.000001 99.735500 83.288300 -101.327000 8.984550 -0.406207 -0.000000 5.501350 2.296050 -3.290670 16.377300 -0.000001 -0.000001 0.809864 -7.479090 0.756395 6.456720 -0.000001 -0.000000 2.274090 -13.882000 2.029100 12.994200 -0.242716 4.980390 -89.664800 -0.889286 -69.346800 5.348090 -0.000007 -0.000001 -73.231500 21.573400 -2.472470 24.328600 0.000019 0.000005 2.392840 12.264600 -11.128700 22.291600 -0.000001 0.000005 7.394150 5.343960 -1.195850 12.994500 -0.242716 -4.980390 88.319800 6.199560 -74.803500 -5.348130 -0.000001 -0.000004 -58.276000 44.165600 -33.528400 -24.328900 0.000322 -0.000009 2.024500 3.215170 -32.233700 -22.291500 -0.000108 -0.000004 12.891200 5.453990 -4.783060 -2.192480 -6.469440 -0.000000 179.772000 -5.559000 -28.181300 39.081100 -0.000007 -0.000012 -0.066470 0.118899 29.207200 40.985400 -0.000006 -0.000013 -3.637550 1.589240 -49.520800 11.754300 -0.000000 0.000003 -0.002196 -0.031145 -17.843200 -2.192510 6.469440 -0.000001 174.090000 3.758700 -168.459000 -39.081100 -0.002282 -0.040193 0.059985 -0.083231 34.260500 -40.985400 0.000008 0.000006 18.479200 11.949300 -65.451200 -11.754300 -0.000006 -0.000006 -0.185452 -0.620376 -43.059000
0.000000 0.000000 0.000000 0.000000 0.000000 -0.000000 77.307200 88.041900 182.191000 124.505000 -81.093000 37.755300 15.735700 0.000005 -0.000001 99.274500 82.670400 -101.109000 8.984550 -0.406207 -0.000000 6.746650 2.371250 -3.804560 16.377300 -0.000001 -0.000001 0.783514 -7.257380 0.476975 6.456720 -0.000001 -0.000000 2.543830 -13.669900 2.706660 12.994200 -0.242716 4.980390 -89.673900 -0.873519 -69.528700 5.348090 -0.000007 -0.000001 -71.584200 21.326200 -5.574080 24.328600 0.000019 0.000005 2.393240 11.414800 -11.925700 22.291600 -0.000001 0.000005 8.002000 5.361660 -1.730180 12.994500 -0.242716 -4.980390 88.217600 6.671780 -75.005400 -5.348130 -0.000001 -0.000004 -61.954600 41.996000 -28.448600 -24.328900 0.000322 -0.000009 1.948340 3.694050 -27.852900 -22.291500 -0.000108 -0.000004 12.830700 5.453830 -4.776970 -2.192480 -6.469440 -0.000000 179.722000 -3.740650 -25.259500 39.081100 -0.000007 -0.000012 -0.109763 0.157996 34.788800 40.985400 -0.000006 -0.000013 -3.710090 -0.344429 -56.051900 11.754300 -0.000000 0.000003 -0.000000 -0.000001 -16.577500 -2.192510 6.469440 -0.000001 173.121000 2.556690 -169.640000 -39.081100 -0.002282 -0.040193 0.059714 -0.062307 42.171900 -40.985400 0.000008 0.000006 16.476400 12.603700 -55.926300 -11.754300 -0.000006 -0.000006 -0.240066 -0.707848 -47.241000
